<svg width="200" height="200" viewBox="0 0 200 200" fill="none" xmlns="http://www.w3.org/2000/svg">
<mask id="path-1-inside-1_2_11" fill="white">
<path fill-rule="evenodd" clip-rule="evenodd" d="M133.333 0H66.6667V66.6667H2.91409e-06L0 133.333H66.6667V200H133.333V133.333H200V66.6667H133.333V0Z"/>
</mask>
<path fill-rule="evenodd" clip-rule="evenodd" d="M133.333 0H66.6667V66.6667H2.91409e-06L0 133.333H66.6667V200H133.333V133.333H200V66.6667H133.333V0Z" fill="#FDD04F"/>
<path d="M66.6667 0V-8H58.6667V0H66.6667ZM133.333 0H141.333V-8H133.333V0ZM66.6667 66.6667V74.6667H74.6667V66.6667H66.6667ZM2.91409e-06 66.6667V58.6667H-8L-8 66.6667H2.91409e-06ZM0 133.333H-8V141.333H0V133.333ZM66.6667 133.333H74.6667V125.333H66.6667V133.333ZM66.6667 200H58.6667V208H66.6667V200ZM133.333 200V208H141.333V200H133.333ZM133.333 133.333V125.333H125.333V133.333H133.333ZM200 133.333V141.333H208V133.333H200ZM200 66.6667H208V58.6667H200V66.6667ZM133.333 66.6667H125.333V74.6667H133.333V66.6667ZM66.6667 8H133.333V-8H66.6667V8ZM74.6667 66.6667V0H58.6667V66.6667H74.6667ZM2.91409e-06 74.6667H66.6667V58.6667H2.91409e-06V74.6667ZM8 133.333L8 66.6667H-8L-8 133.333H8ZM66.6667 125.333H0V141.333H66.6667V125.333ZM74.6667 200V133.333H58.6667V200H74.6667ZM133.333 192H66.6667V208H133.333V192ZM125.333 133.333V200H141.333V133.333H125.333ZM200 125.333H133.333V141.333H200V125.333ZM192 66.6667V133.333H208V66.6667H192ZM133.333 74.6667H200V58.6667H133.333V74.6667ZM125.333 0V66.6667H141.333V0H125.333Z" fill="black" mask="url(#path-1-inside-1_2_11)"/>
</svg>
